<svg width="80" height="80" viewBox="0 0 107 107" fill="none" xmlns="http://www.w3.org/2000/svg">
  <rect width="107" height="107" fill="white"/>
  <path d="M8.91675 98.0833V89.1667C8.91675 89.1667 31.2084 80.25 53.5001 80.25C75.7917 80.25 98.0834 89.1667 98.0834 89.1667V98.0833H8.91675ZM50.3792 40.5708C45.0292 23.1833 17.8334 27.1958 17.8334 27.1958C17.8334 27.1958 18.7251 61.9708 44.1376 56.6208C42.3542 43.6917 35.6667 40.125 35.6667 40.125C48.1501 40.125 49.0417 55.2833 49.0417 55.2833V75.7917H57.9584V57.0667C57.9584 57.0667 57.9584 39.6792 71.3334 35.2208C71.3334 35.2208 62.4167 48.5958 62.4167 57.5125C93.6251 60.6333 93.6251 17.8333 93.6251 17.8333C93.6251 17.8333 53.9459 13.375 50.3792 40.5708Z" fill="black"/>
</svg>
